<?xml version="1.0" standalone="no"?><!DOCTYPE svg PUBLIC "-//W3C//DTD SVG 1.1//EN" "http://www.w3.org/Graphics/SVG/1.1/DTD/svg11.dtd"><svg width="100%" height="100%" viewBox="0 0 208 77" version="1.1" xmlns="http://www.w3.org/2000/svg" xmlns:xlink="http://www.w3.org/1999/xlink" xml:space="preserve" style="fill-rule:evenodd;clip-rule:evenodd;stroke-linecap:round;stroke-linejoin:round;stroke-miterlimit:1.41421;"><path d="M204,9c0,-1.326 -0.527,-2.598 -1.464,-3.536c-0.938,-0.937 -2.21,-1.464 -3.536,-1.464c-27.72,0 -162.28,0 -190,0c-1.326,0 -2.598,0.527 -3.536,1.464c-0.937,0.938 -1.464,2.21 -1.464,3.536c0,12.578 0,45.422 0,58c0,1.326 0.527,2.598 1.464,3.536c0.938,0.937 2.21,1.464 3.536,1.464c27.72,0 162.28,0 190,0c1.326,0 2.598,-0.527 3.536,-1.464c0.937,-0.938 1.464,-2.21 1.464,-3.536c0,-12.578 0,-45.422 0,-58Z" style="fill:#0656cc;stroke-width:1px;stroke:#0057cc;"/><path d="M42.688,37.392c0,2.56 -0.28,4.88 -0.84,6.96c-0.56,2.08 -1.416,3.856 -2.568,5.328c-1.152,1.472 -2.616,2.608 -4.392,3.408c-1.776,0.8 -3.88,1.2 -6.312,1.2l-9.552,0l0,-33.984l9.552,0c2.432,0 4.536,0.4 6.312,1.2c1.776,0.8 3.24,1.944 4.392,3.432c1.152,1.488 2.008,3.28 2.568,5.376c0.56,2.096 0.84,4.456 0.84,7.08ZM34.96,37.392c0,-3.424 -0.584,-6.008 -1.752,-7.752c-1.168,-1.744 -2.68,-2.616 -4.536,-2.616l-1.872,0l0,20.544l1.872,0c1.856,0 3.368,-0.872 4.536,-2.616c1.168,-1.744 1.752,-4.264 1.752,-7.56Z" style="fill:#fff;fill-rule:nonzero;"/><path d="M54.016,43.632c0,0.704 0.088,1.368 0.264,1.992c0.176,0.624 0.408,1.168 0.696,1.632c0.288,0.464 0.64,0.832 1.056,1.104c0.416,0.272 0.88,0.408 1.392,0.408c0.832,0 1.504,-0.272 2.016,-0.816c0.512,-0.544 0.912,-1.184 1.2,-1.92l5.52,3.12c-0.832,1.856 -1.992,3.328 -3.48,4.416c-1.488,1.088 -3.336,1.632 -5.544,1.632c-1.472,0 -2.84,-0.288 -4.104,-0.864c-1.264,-0.576 -2.368,-1.432 -3.312,-2.568c-0.944,-1.136 -1.68,-2.536 -2.208,-4.2c-0.528,-1.664 -0.792,-3.584 -0.792,-5.76c0,-2.048 0.248,-3.912 0.744,-5.592c0.496,-1.68 1.2,-3.104 2.112,-4.272c0.912,-1.168 1.992,-2.072 3.24,-2.712c1.248,-0.64 2.624,-0.96 4.128,-0.96c1.728,0 3.2,0.336 4.416,1.008c1.216,0.672 2.216,1.592 3,2.76c0.784,1.168 1.352,2.56 1.704,4.176c0.352,1.616 0.528,3.384 0.528,5.304l0,2.112l-12.576,0ZM59.68,38.736c0,-1.344 -0.208,-2.464 -0.624,-3.36c-0.416,-0.896 -1.104,-1.344 -2.064,-1.344c-0.512,0 -0.952,0.152 -1.32,0.456c-0.368,0.304 -0.68,0.688 -0.936,1.152c-0.256,0.464 -0.448,0.976 -0.576,1.536c-0.128,0.56 -0.192,1.08 -0.192,1.56l5.712,0Z" style="fill:#fff;fill-rule:nonzero;"/><path d="M85.648,23.28c-0.48,-0.16 -0.992,-0.24 -1.536,-0.24c-1.056,0 -1.768,0.408 -2.136,1.224c-0.368,0.816 -0.552,1.768 -0.552,2.856l0,2.064l3.84,0l0,5.856l-3.792,0l0,19.248l-7.344,0l0,-19.248l-2.976,0l0,-5.856l2.976,0l0,-2.112c0,-1.376 0.144,-2.68 0.432,-3.912c0.288,-1.232 0.768,-2.32 1.44,-3.264c0.672,-0.944 1.568,-1.696 2.688,-2.256c1.12,-0.56 2.512,-0.84 4.176,-0.84c0.448,0 0.976,0.032 1.584,0.096c0.608,0.064 1.136,0.16 1.584,0.288l-0.384,6.096Z" style="fill:#fff;fill-rule:nonzero;"/><path d="M95.184,67.788l-0.058,-58l7.598,0l0,58l-7.54,0Z" style="fill:#ffc300;fill-rule:nonzero;"/><path d="M111.838,54.288l0,-33.984l7.776,0l0,26.88l9.072,0l0,7.104l-16.848,0Z" style="fill:#fff;fill-rule:nonzero;"/><rect x="132.91" y="29.184" width="7.584" height="25.104" style="fill:#fff;"/><path d="M140.83,22.368c0,0.532 -0.074,1.029 -0.22,1.49c-0.19,0.594 -0.5,1.129 -0.932,1.606c-0.36,0.398 -0.769,0.702 -1.228,0.913c-0.519,0.239 -1.102,0.359 -1.748,0.359c-0.684,0 -1.297,-0.134 -1.839,-0.402c-0.422,-0.209 -0.801,-0.499 -1.137,-0.87c-0.768,-0.848 -1.152,-1.88 -1.152,-3.096c0,-0.608 0.104,-1.176 0.312,-1.704c0.208,-0.528 0.488,-0.992 0.84,-1.392c0.352,-0.4 0.784,-0.72 1.296,-0.96c0.512,-0.24 1.072,-0.36 1.68,-0.36c0.608,0 1.168,0.12 1.68,0.36c0.512,0.24 0.944,0.56 1.296,0.96c0.352,0.4 0.632,0.864 0.84,1.392c0.208,0.528 0.312,1.096 0.312,1.704Z" style="fill:#ffc300;"/><path d="M154.126,29.184l0,3.552l0.096,0c0.416,-1.216 1.152,-2.264 2.208,-3.144c1.056,-0.88 2.368,-1.32 3.936,-1.32c1.44,0 2.592,0.296 3.456,0.888c0.864,0.592 1.536,1.384 2.016,2.376c0.48,0.992 0.8,2.128 0.96,3.408c0.16,1.28 0.24,2.608 0.24,3.984l0,15.36l-7.536,0l0,-15.408c0,-1.056 -0.152,-1.984 -0.456,-2.784c-0.304,-0.8 -0.904,-1.2 -1.8,-1.2c-0.928,0 -1.648,0.424 -2.16,1.272c-0.512,0.848 -0.768,1.96 -0.768,3.336l0,14.784l-7.536,0l0,-25.104l7.344,0Z" style="fill:#fff;fill-rule:nonzero;"/><path d="M178.942,43.632c0,0.704 0.088,1.368 0.264,1.992c0.176,0.624 0.408,1.168 0.696,1.632c0.288,0.464 0.64,0.832 1.056,1.104c0.416,0.272 0.88,0.408 1.392,0.408c0.832,0 1.504,-0.272 2.016,-0.816c0.512,-0.544 0.912,-1.184 1.2,-1.92l5.52,3.12c-0.832,1.856 -1.992,3.328 -3.48,4.416c-1.488,1.088 -3.336,1.632 -5.544,1.632c-1.472,0 -2.84,-0.288 -4.104,-0.864c-1.264,-0.576 -2.368,-1.432 -3.312,-2.568c-0.944,-1.136 -1.68,-2.536 -2.208,-4.2c-0.528,-1.664 -0.792,-3.584 -0.792,-5.76c0,-2.048 0.248,-3.912 0.744,-5.592c0.496,-1.68 1.2,-3.104 2.112,-4.272c0.912,-1.168 1.992,-2.072 3.24,-2.712c1.248,-0.64 2.624,-0.96 4.128,-0.96c1.728,0 3.2,0.336 4.416,1.008c1.216,0.672 2.216,1.592 3,2.76c0.784,1.168 1.352,2.56 1.704,4.176c0.352,1.616 0.528,3.384 0.528,5.304l0,2.112l-12.576,0ZM184.606,38.736c0,-1.344 -0.208,-2.464 -0.624,-3.36c-0.416,-0.896 -1.104,-1.344 -2.064,-1.344c-0.512,0 -0.952,0.152 -1.32,0.456c-0.368,0.304 -0.68,0.688 -0.936,1.152c-0.256,0.464 -0.448,0.976 -0.576,1.536c-0.128,0.56 -0.192,1.08 -0.192,1.56l5.712,0Z" style="fill:#fff;fill-rule:nonzero;"/></svg>